HIERARCHY
ROOT Hips
{
  OFFSET 0 89.5177 0.535
  CHANNELS 6 Xposition Yposition Zposition Zrotation Xrotation Yrotation
  JOINT Spine
  {
    OFFSET 12.0259 -0.162855 1.69034e-005
    CHANNELS 3 Zrotation Xrotation Yrotation
    JOINT Spine1
    {
      OFFSET 15.3169 -0.0121922 0
      CHANNELS 3 Zrotation Xrotation Yrotation
      JOINT Spine2
      {
        OFFSET 15.3176 -0.0121908 0
        CHANNELS 3 Zrotation Xrotation Yrotation
        JOINT Neck
        {
          OFFSET 19.9142 1.56338 0
          CHANNELS 3 Zrotation Xrotation Yrotation
          JOINT Head
          {
            OFFSET 6.92651 0 0
            CHANNELS 3 Zrotation Xrotation Yrotation
            End Site
            {
              OFFSET 20.7666 0 0
            }
          }
          JOINT LeftShoulder
          {
            OFFSET -6.20654 0.708824 7.28219
            CHANNELS 3 Zrotation Xrotation Yrotation
            JOINT LeftArm
            {
              OFFSET 14.108 0 -1.52588e-005
              CHANNELS 3 Zrotation Xrotation Yrotation
              JOINT LeftForeArm
              {
                OFFSET 28.5802 0 0
                CHANNELS 3 Zrotation Xrotation Yrotation
                JOINT LeftHand
                {
                  OFFSET 27.092 0 0
                  CHANNELS 3 Zrotation Xrotation Yrotation
                  End Site
                  {
                    OFFSET 9.55928 -0.186424 0.145352
                  }
                }
              }
            }
          }
          JOINT RightShoulder
          {
            OFFSET -6.20654 0.708866 -7.28218
            CHANNELS 3 Zrotation Xrotation Yrotation
            JOINT RightArm
            {
              OFFSET 14.108 0 1.52588e-005
              CHANNELS 3 Zrotation Xrotation Yrotation
              JOINT RightForeArm
              {
                OFFSET 28.5802 0 0
                CHANNELS 3 Zrotation Xrotation Yrotation
                JOINT RightHand
                {
                  OFFSET 27.092 0 0
                  CHANNELS 3 Zrotation Xrotation Yrotation
                  End Site
                  {
                    OFFSET 9.55929 -0.186417 -0.145354
                  }
                }
              }
            }
          }
        }
      }
    }
  }
  JOINT LeftUpLeg
  {
    OFFSET 0.005 -0.535 8.837
    CHANNELS 3 Zrotation Xrotation Yrotation
    JOINT LeftLeg
    {
      OFFSET 39.9035 0 0
      CHANNELS 3 Zrotation Xrotation Yrotation
      JOINT LeftFoot
      {
        OFFSET 39.6689 0 0
        CHANNELS 3 Zrotation Xrotation Yrotation
        JOINT LeftToe
        {
          OFFSET 10.1624 13.6296 0
          CHANNELS 3 Zrotation Xrotation Yrotation
          End Site
          {
            OFFSET 8.38147 0 0
          }
        }
      }
    }
  }
  JOINT RightUpLeg
  {
    OFFSET 0.005 -0.535 -8.837
    CHANNELS 3 Zrotation Xrotation Yrotation
    JOINT RightLeg
    {
      OFFSET 39.9035 0 0
      CHANNELS 3 Zrotation Xrotation Yrotation
      JOINT RightFoot
      {
        OFFSET 39.6689 0 0
        CHANNELS 3 Zrotation Xrotation Yrotation
        JOINT RightToe
        {
          OFFSET 10.1624 13.6296 0
          CHANNELS 3 Zrotation Xrotation Yrotation
          End Site
          {
            OFFSET 8.38147 0 0
          }
        }
      }
    }
  }
}
MOTION
Frames:	11
Frame Time:	0.0333333
384.677 89.4729 47.7827 137.941 -84.0602 47.5665 -0.334336 -0.633395 0.667867 -0.661326 -1.27017 1.33232 -0.661326 -1.27017 1.33231 -8.30708e-012 -9.0191e-006 -5.27751e-005 -22.8442 36.0467 10.3038 179.889 -7.04996 -90.9031 43.0891 -74.2711 40.8773 -4.96293 0 1.59028e-015 -41.133 -14.4007 -32.8117 179.746 1.79484 98.0559 60.4624 58.1741 -52.8024 -21.4774 -6.36111e-015 7.95139e-016 -38.1429 25.4926 40.5071 -5.23351 3.17539 -176.879 -13.6024 3.18055e-015 3.97569e-016 16.5243 12.7409 -10.3956 90 -1.09332e-015 -0 3.49358 -8.03096 -178.882 1.88993e-006 0 9.93923e-017 7.23456 -5.85062 4.44955 90 5.90142e-017 1.98785e-016 
384.683 89.4681 47.7296 138.014 -84.1818 47.6329 -0.34208 -0.650239 0.655066 -0.676768 -1.30387 1.30654 -0.676768 -1.30387 1.30653 -8.30788e-012 -9.0191e-006 -5.27751e-005 -22.8922 36.5161 10.595 179.883 -7.13052 -90.9383 42.7786 -74.299 40.5953 -4.8814 1.59028e-015 -0 -41.1878 -14.2846 -32.6934 179.754 1.76015 97.9433 60.313 58.1299 -52.7125 -21.5306 3.18055e-015 -0 -38.435 25.4555 40.6926 -5.07503 3.2151 -176.869 -13.5507 2.38542e-015 3.97569e-016 16.5146 12.6937 -10.3693 90 3.97569e-016 -0 3.60518 -7.98639 -178.878 1.88993e-006 -7.95139e-016 -9.93923e-017 7.26384 -5.87245 4.49161 90 9.41121e-016 -3.97569e-016 
384.678 89.464 47.6804 138.043 -84.307 47.6845 -0.340734 -0.638276 0.666276 -0.674085 -1.27999 1.32904 -0.674085 -1.27999 1.32903 -8.30748e-012 -9.0191e-006 -5.27751e-005 -22.9257 37.1407 10.768 179.889 -7.1142 -90.8982 42.9346 -74.3399 40.858 -4.80271 -3.18055e-015 -1.59028e-015 -41.1588 -14.3244 -32.6969 179.744 1.83384 97.9458 60.1538 58.1555 -52.5619 -21.5121 0 -1.59028e-015 -38.7345 25.2729 40.7405 -4.9018 3.26336 -176.892 -13.4748 -1.59028e-015 -5.96354e-016 16.4815 12.6514 -10.3668 90 -3.97569e-016 -0 3.71894 -7.86871 -178.899 1.88993e-006 7.95139e-016 -0 7.28161 -5.83537 4.4144 90 -3.41661e-017 -0 
384.698 89.459 47.6268 138.189 -84.4401 47.8357 -0.357095 -0.656598 0.645528 -0.706838 -1.3167 1.28725 -0.706839 -1.3167 1.28724 -8.30828e-012 -9.0191e-006 -5.27751e-005 -23.039 38.136 11.3104 179.876 -7.22999 -90.9814 42.6434 -74.2683 40.5999 -4.83009 1.59028e-015 1.59028e-015 -41.038 -14.3167 -32.7191 179.763 1.7292 97.8053 60.0034 58.0842 -52.3922 -21.5749 3.18055e-015 3.18055e-015 -39.2353 24.9963 41.0148 -4.74644 3.37423 -176.871 -13.4322 -1.59028e-015 -0 16.4813 12.6548 -10.4012 90 8.44835e-016 -7.95139e-016 3.833 -7.74838 -178.891 1.88993e-006 1.59028e-015 -1.98785e-016 7.30365 -5.82054 4.37342 90 -7.26806e-016 -1.98785e-016 
384.699 89.4552 47.5881 138.162 -84.4935 47.8108 -0.356033 -0.644395 0.671231 -0.704558 -1.29244 1.33875 -0.704558 -1.29244 1.33874 -8.30748e-012 -9.0191e-006 -5.27751e-005 -23.1886 39.2099 11.7037 179.887 -7.20511 -90.9022 43.1268 -74.3101 41.2125 -4.8418 -1.59028e-015 -0 -41.0307 -14.2905 -32.7107 179.74 1.86584 97.94 60.1725 58.0964 -52.5893 -21.5814 -6.36111e-015 -2.38542e-015 -39.2685 25.0234 41.1697 -4.63922 3.33036 -176.884 -13.3658 -2.38542e-015 1.98785e-016 16.4488 12.5831 -10.3525 90 9.44227e-016 -0 3.89735 -7.68351 -178.89 1.88993e-006 7.95139e-016 -0 7.3169 -5.79471 4.3307 90 7.57867e-016 -3.97569e-016 
384.711 89.4514 47.5573 138.397 -84.5429 48.0481 -0.368536 -0.642946 0.672231 -0.729571 -1.28969 1.34062 -0.729571 -1.28969 1.34061 -8.30629e-012 -9.0191e-006 -5.27751e-005 -23.3234 40.2666 12.1438 179.886 -7.25596 -90.9049 43.1815 -74.228 41.3967 -4.89551 -3.18055e-015 -1.59028e-015 -41.2117 -14.2993 -32.8486 179.74 1.86507 97.9414 60.3936 58.1296 -52.7204 -21.5186 6.36111e-015 -0 -39.7075 24.8033 41.3711 -4.57359 3.3428 -176.892 -13.3366 2.38542e-015 9.93923e-016 16.444 12.5541 -10.3341 90 1.49089e-015 7.95139e-016 3.93469 -7.65085 -178.903 1.88993e-006 2.38542e-015 1.98785e-016 7.33998 -5.80669 4.36733 90 -3.29237e-016 -5.96354e-016 
384.726 89.4508 47.5356 138.531 -84.5718 48.1833 -0.379602 -0.651848 0.675926 -0.75156 -1.30765 1.34783 -0.75156 -1.30765 1.34782 -8.30788e-012 -9.0191e-006 -5.27751e-005 -23.3067 41.3564 12.394 179.885 -7.36466 -90.8991 43.1982 -74.2154 41.5349 -4.83337 0 -1.59028e-015 -41.3392 -14.2389 -32.8616 179.738 1.87561 97.9451 60.3002 57.9851 -52.5979 -21.5243 6.36111e-015 -0 -39.744 24.7626 41.4091 -4.51223 3.35455 -176.876 -13.2712 1.59028e-015 1.98785e-016 16.4073 12.5282 -10.3461 90 1.3418e-015 -0 3.96103 -7.68635 -178.898 1.88993e-006 -7.95139e-016 -0 7.37092 -5.87341 4.46655 90 -2.29845e-016 -3.97569e-016 
384.745 89.45 47.5292 138.816 -84.5832 48.4693 -0.38077 -0.640912 0.69439 -0.753816 -1.28591 1.38481 -0.753816 -1.28591 1.3848 -8.30748e-012 -9.0191e-006 -5.27751e-005 -23.4274 42.177 12.4616 179.903 -7.32506 -90.7634 43.0636 -74.2451 41.404 -4.73692 1.59028e-015 -1.59028e-015 -41.3298 -14.2343 -32.8584 179.725 1.97179 97.9427 60.3239 58.0371 -52.5372 -21.563 3.18055e-015 7.95139e-016 -40.0225 24.6541 41.6213 -4.50493 3.3681 -176.858 -13.2465 -3.97569e-015 -1.98785e-016 16.4034 12.5224 -10.3557 90 -5.96354e-016 1.59028e-015 3.95404 -7.71216 -178.891 1.88993e-006 7.95139e-016 1.98785e-016 7.39254 -5.91802 4.5488 90 1.45982e-016 -5.96354e-016 
384.767 89.4491 47.5381 139.465 -84.5828 49.1162 -0.392148 -0.647636 0.691729 -0.776522 -1.29948 1.37932 -0.776522 -1.29948 1.37931 -8.30708e-012 -9.0191e-006 -5.27751e-005 -23.5971 42.8856 12.6521 179.899 -7.3666 -90.786 43.2685 -74.2114 41.5587 -4.70511 4.77083e-015 -3.18055e-015 -41.2719 -14.2776 -32.8311 179.728 1.97205 97.8527 60.3078 57.9953 -52.4954 -21.6989 -9.54166e-015 -1.59028e-015 -39.5458 24.7701 41.3607 -4.54704 3.42405 -176.841 -13.2471 -1.59028e-015 -1.98785e-016 16.4134 12.5307 -10.3662 90 -2.48481e-016 -7.95139e-016 3.90452 -7.66752 -178.882 1.88993e-006 0 1.98785e-016 7.39411 -5.92509 4.55591 90 1.48157e-015 -0 
384.796 89.4479 47.5578 140.568 -84.5982 50.2158 -0.412304 -0.672951 0.669455 -0.816801 -1.35019 1.33436 -0.816801 -1.35019 1.33435 -8.30708e-012 -9.0191e-006 -5.27751e-005 -23.8952 43.5031 12.993 179.896 -7.55776 -90.7889 42.9932 -74.3594 41.221 -4.5586 -1.59028e-015 -0 -41.2719 -14.2887 -32.837 179.745 1.89271 97.686 60.1951 57.8626 -52.4523 -21.9171 3.18055e-015 3.97569e-015 -40.012 24.6023 41.5905 -4.61786 3.53145 -176.812 -13.2608 -7.95139e-016 -1.98785e-016 16.4247 12.5543 -10.388 90 2.38542e-015 -0 3.82563 -7.60018 -178.878 1.88993e-006 7.95139e-016 9.93923e-017 7.39862 -5.95643 4.62086 90 4.96962e-016 -0 
384.823 89.4471 47.5856 141.166 -84.5648 50.7963 -0.405786 -0.654841 0.695508 -0.803672 -1.31408 1.38667 -0.803672 -1.31408 1.38666 -8.30708e-012 -9.0191e-006 -5.27751e-005 -24.0717 43.8512 12.9046 179.909 -7.44531 -90.7008 43.6182 -74.3637 41.7729 -4.58155 0 3.18055e-015 -41.2602 -14.2285 -32.8012 179.729 2.01391 97.6766 59.9641 57.8244 -52.2229 -22.0452 3.18055e-015 -1.59028e-015 -40.464 24.4188 41.6846 -4.68836 3.5217 -176.784 -13.2448 7.95139e-016 -0 16.3885 12.5114 -10.343 90 6.4605e-016 7.95139e-016 3.74589 -7.67122 -178.858 1.88993e-006 7.95139e-016 -9.93923e-017 7.41362 -6.04238 4.75883 90 -1.2921e-015 -1.98785e-016 
